<svg width="123" height="38" viewBox="0 0 123 38" fill="none" xmlns="http://www.w3.org/2000/svg">
<g clip-path="url(#clip0)">
<path d="M9.56954 16.2899C9.56954 16.2899 0.882949 8.51609 10.1333 4.05962C12.8256 4.20333 11.8965 5.4235 12.7227 6.12191C12.7227 6.12191 12.1994 8.56468 11.8695 6.45021C11.5395 4.33575 16.6132 -0.206968 18.104 1.00649C19.5948 2.21995 26.9131 4.64924 22.0017 12.5413C17.0904 20.4333 17.8495 11.1471 20.4734 10.8745C23.0975 10.6019 30.4902 11.5858 30.2663 19.2278C30.0235 27.5182 17.295 21.9605 18.2383 18.0699L16.6968 17.9527L16.3234 16.2955C16.2283 17.9973 15.8784 18.9749 14.8149 17.9241C15.4975 19.4717 15.6487 20.3857 13.6159 18.6958L13.5057 18.592C13.3007 19.1082 12.4516 18.0529 14.1555 16.9386C12.007 17.9536 13.0291 16.6268 13.3507 15.8173L14.9789 16.1578L15.6968 14.98L16.1249 14.8402L16.6077 15.7779C17.5922 18.7543 18.372 16.6584 19.2295 16.484C18.5662 15.9249 19.2916 14.2336 16.4272 15.4689C18.0005 14.3117 18.0321 13.8527 17.6399 13.5854C16.8197 10.8529 15.3374 13.3342 13.9821 14.8152C13.3254 15.0751 12.5407 13.5038 12.0427 16.0325C11.1898 17.2161 10.4376 17.8327 10.2089 15.5029C15.0724 18.6332 16.7386 19.1076 12.5456 14.7148C12.5456 14.7148 4.86242 16.5056 7.01207 20.5455C9.16172 24.5855 13.5301 21.5054 13.5301 21.5054C13.5301 21.5054 11.923 17.2607 11.7221 20.9489C11.5212 24.6373 13.0086 30.876 18.784 29.6C24.5594 28.3241 21.8782 23.4291 21.8782 23.4291L18.9556 20.198" stroke="#070606"/>
<path d="M11.1408 22.544C9.00955 25.3662 6.0258 30.971 11.1408 30.8135C17.5346 30.6166 20.4408 36.3264 15.7908 36.5233C11.1408 36.7202 15.7908 28.057 11.1408 28.8446C7.42082 29.4746 5.97416 35.1451 5.71582 37.9015" stroke="#070606"/>
<path d="M27.6577 27.7617C27.7915 27.7617 27.8999 27.6515 27.8999 27.5156C27.8999 27.3796 27.7915 27.2694 27.6577 27.2694C27.524 27.2694 27.4155 27.3796 27.4155 27.5156C27.4155 27.6515 27.524 27.7617 27.6577 27.7617Z" stroke="#070606"/>
<path d="M0.24209 15.4067C0.349095 15.4067 0.43584 15.3186 0.43584 15.2098C0.43584 15.1011 0.349095 15.0129 0.24209 15.0129C0.135085 15.0129 0.0483398 15.1011 0.0483398 15.2098C0.0483398 15.3186 0.135085 15.4067 0.24209 15.4067Z" stroke="#070606"/>
</g>
<path d="M38.704 30V29.552L40.16 29.408V19.792L38.608 19.664V19.216H41.056L45.04 28.784L48.928 19.216H51.536V19.664L49.904 19.792C49.8933 20.5173 49.888 21.248 49.888 21.984C49.888 22.7093 49.888 23.44 49.888 24.176V25.04C49.888 25.776 49.888 26.5067 49.888 27.232C49.888 27.9573 49.8933 28.688 49.904 29.424L51.536 29.552V30H47.424V29.552L49.008 29.424C49.0187 28.688 49.024 27.9627 49.024 27.248C49.024 26.5333 49.024 25.8293 49.024 25.136L49.056 20.368L45.136 30H44.688L40.64 20.352L40.72 23.968V29.408L42.224 29.552V30H38.704ZM59.6409 30H55.1289V29.552L56.9209 29.424C56.9315 29.136 56.9369 28.8587 56.9369 28.592C56.9475 28.3147 56.9529 28.0373 56.9529 27.76C56.9529 27.472 56.9529 27.168 56.9529 26.848C56.9529 26.5173 56.9529 26.1493 56.9529 25.744L53.9929 19.792L52.6809 19.664V19.216H56.6329V19.664L54.9689 19.792L57.5609 25.152L60.1689 19.808L58.5209 19.664V19.216H62.1369V19.664L60.7449 19.808L57.8169 25.712C57.8169 26.16 57.8169 26.5547 57.8169 26.896C57.8169 27.2373 57.8169 27.552 57.8169 27.84C57.8169 28.1173 57.8169 28.384 57.8169 28.64C57.8275 28.896 57.8382 29.1573 57.8489 29.424L59.6409 29.552V30ZM68.2304 25.04V24.176C68.2304 23.44 68.2304 22.7093 68.2304 21.984C68.2304 21.2587 68.225 20.528 68.2144 19.792L66.5824 19.664V19.216H70.8544C72.0277 19.216 72.929 19.4613 73.5584 19.952C74.1877 20.432 74.5024 21.1253 74.5024 22.032C74.5024 22.736 74.2677 23.344 73.7984 23.856C73.3397 24.368 72.689 24.6987 71.8464 24.848C72.2624 24.9547 72.5824 25.1413 72.8064 25.408C73.0304 25.6747 73.2277 26.064 73.3984 26.576L74.3744 29.44L75.8144 29.552V30C75.697 30.032 75.5477 30.0587 75.3664 30.08C75.185 30.1013 74.977 30.112 74.7424 30.112C74.305 30.112 73.9957 30.0533 73.8144 29.936C73.6437 29.808 73.5157 29.6107 73.4304 29.344L72.5664 26.592C72.4704 26.2933 72.369 26.0427 72.2624 25.84C72.1557 25.6267 72.017 25.456 71.8464 25.328C71.6864 25.2 71.4837 25.1093 71.2384 25.056C71.0037 25.0027 70.7104 24.976 70.3584 24.976H69.0944C69.0944 25.808 69.0944 26.5867 69.0944 27.312C69.0944 28.0267 69.105 28.7307 69.1264 29.424L70.7584 29.552V30H66.5824V29.552L68.2144 29.424C68.225 28.688 68.2304 27.9573 68.2304 27.232C68.2304 26.5067 68.2304 25.776 68.2304 25.04ZM70.8224 19.728H69.1264C69.105 20.464 69.0944 21.216 69.0944 21.984C69.0944 22.752 69.0944 23.5893 69.0944 24.496H70.8544C71.2704 24.496 71.649 24.4373 71.9904 24.32C72.3317 24.192 72.6197 24.016 72.8544 23.792C73.0997 23.568 73.2864 23.3067 73.4144 23.008C73.553 22.7093 73.6224 22.384 73.6224 22.032C73.6224 21.3173 73.3984 20.7573 72.9504 20.352C72.5024 19.936 71.793 19.728 70.8224 19.728ZM76.4096 30V29.552L77.7216 29.408L81.1456 19.12H81.7376L85.2096 29.424L86.6976 29.552V30H82.5856V29.552L84.2976 29.408L83.2416 26.224H79.3536L78.3136 29.408L79.7856 29.552V30H76.4096ZM83.0816 25.744L81.2736 20.304L79.5136 25.744H83.0816ZM87.4228 30V29.552L88.8788 29.408V19.792L87.3268 19.664V19.216H89.7748L93.7588 28.784L97.6468 19.216H100.255V19.664L98.6228 19.792C98.6121 20.5173 98.6068 21.248 98.6068 21.984C98.6068 22.7093 98.6068 23.44 98.6068 24.176V25.04C98.6068 25.776 98.6068 26.5067 98.6068 27.232C98.6068 27.9573 98.6121 28.688 98.6228 29.424L100.255 29.552V30H96.1428V29.552L97.7268 29.424C97.7374 28.688 97.7428 27.9627 97.7428 27.248C97.7428 26.5333 97.7428 25.8293 97.7428 25.136L97.7748 20.368L93.8548 30H93.4068L89.3588 20.352L89.4388 23.968V29.408L90.9427 29.552V30H87.4228ZM103.605 25.04V24.176C103.605 23.44 103.605 22.7093 103.605 21.984C103.605 21.2587 103.6 20.528 103.589 19.792L101.957 19.664V19.216H109.685L109.829 21.824H109.237L108.933 19.744H104.501C104.48 20.48 104.469 21.2213 104.469 21.968C104.469 22.7147 104.469 23.4827 104.469 24.272H107.333L107.509 22.736H107.989V26.32H107.509L107.333 24.784H104.469C104.469 25.712 104.469 26.5493 104.469 27.296C104.469 28.0427 104.48 28.768 104.501 29.472H109.189L109.493 27.392H110.085L109.957 30H101.957V29.552L103.589 29.424C103.6 28.688 103.605 27.9573 103.605 27.232C103.605 26.5067 103.605 25.776 103.605 25.04ZM111.454 30V29.552L112.862 29.408V19.872L112.782 19.76L111.39 19.664V19.216H113.47L119.87 28.464V19.808L118.126 19.664V19.216H121.838V19.664L120.414 19.808V30.112H120.014L113.422 20.672V29.408L115.182 29.552V30H111.454Z" fill="black"/>
<defs>
<clipPath id="clip0">
<rect width="31" height="38" fill="white"/>
</clipPath>
</defs>
</svg>
